<svg width="60" height="60" viewBox="0 0 60 60" fill="none" xmlns="http://www.w3.org/2000/svg">
<mask id="path-1-outside-1_118_355" maskUnits="userSpaceOnUse" x="5" y="3" width="50" height="54" fill="black">
<rect fill="white" x="5" y="3" width="50" height="54"/>
<path fill-rule="evenodd" clip-rule="evenodd" d="M36.3679 12.0079C35.4321 12.0079 34.6 11.4359 34.2359 10.5519C33.872 9.77204 33.0922 9.19999 32.2079 9.19999C31.3239 9.19999 30.5437 9.72014 30.1799 10.5519C29.8157 11.4358 28.984 12.0079 28.0478 12.0079C26.7478 12.0079 25.7597 10.968 25.7597 9.7198L25.76 5.40409C25.76 4.62424 26.3839 4 27.1641 4H37.3041C38.084 4 38.7082 4.62389 38.7082 5.40409V9.77199C38.656 11.0201 37.6679 12.0078 36.3679 12.0078L36.3679 12.0079ZM32.2079 8.05599C33.5598 8.05599 34.8079 8.88807 35.328 10.1358C35.5359 10.6037 35.9001 10.8638 36.3679 10.8638C36.9918 10.8638 37.5119 10.3959 37.5119 9.7716V5.40407C37.5119 5.29997 37.4078 5.19623 37.3041 5.19623L27.1121 5.19587C27.008 5.19587 26.9043 5.29997 26.9043 5.40371V9.77161C26.9043 10.3955 27.3722 10.8638 27.9965 10.8638C28.4644 10.8638 28.8804 10.6037 29.0364 10.1358C29.608 8.83581 30.8562 8.056 32.208 8.056L32.2079 8.05599ZM45.3119 51.736H29.192C28.88 51.736 28.6199 51.4759 28.6199 51.164C28.6199 50.852 28.88 50.592 29.192 50.592H45.2599C49.5759 50.592 53.0599 47.108 53.0599 42.792V8.73205H50.5639V39.88C50.5639 41.492 49.264 42.7919 47.652 42.7919H45.3121L45.3118 45.08C45.3118 46.6923 44.0118 47.9923 42.3999 47.9923L42.3999 47.992H30.7C30.388 47.992 30.1279 47.7319 30.1279 47.42C30.1279 47.1081 30.388 46.848 30.7 46.848H42.3999C43.3357 46.848 44.1159 46.0681 44.1159 45.132V42.2201C44.1159 41.9081 44.376 41.6481 44.6879 41.6481H47.5998C48.5357 41.6481 49.3158 40.8682 49.3158 39.9321V5.19613H40.7879C40.4759 5.19613 40.2158 4.93606 40.2158 4.62411C40.2158 4.31217 40.4759 4.0521 40.7879 4.0521H49.9919C50.3039 4.0521 50.5639 4.31217 50.5639 4.62411V7.58801H53.6319C53.9439 7.58801 54.2039 7.84809 54.2039 8.16003V42.74C54.2558 47.6799 50.2517 51.7359 45.3118 51.7359L45.3119 51.736ZM14.424 31.872C14.112 31.872 13.852 31.612 13.852 31.3V4.57208C13.852 4.26013 14.112 4.00006 14.424 4.00006H23.6281C23.94 4.00006 24.2001 4.26013 24.2001 4.57208C24.2001 4.88402 23.94 5.14409 23.6281 5.14409H15.0483V31.248C15.0483 31.6119 14.7882 31.8719 14.424 31.8719L14.424 31.872ZM6 44.352C6 50.7481 11.1999 56 17.648 56C24.0438 56 29.2956 50.7479 29.296 44.352C29.296 37.9559 24.0961 32.704 17.648 32.704C11.2 32.704 6 37.9561 6 44.352ZM7.196 44.352C7.196 38.5798 11.876 33.9 17.648 33.9C23.4202 33.9 28.1 38.5798 28.1 44.352C28.1 50.1242 23.42 54.804 17.648 54.804C11.8758 54.804 7.196 50.1242 7.196 44.352ZM17.648 50.852C17.336 50.852 17.076 50.5919 17.076 50.28C17.076 49.968 17.336 49.708 17.648 49.708C20.6122 49.708 23.004 47.3158 23.004 44.352C23.004 41.3882 20.56 38.996 17.648 38.996C14.6838 38.996 12.292 41.3882 12.292 44.352C12.292 44.6639 12.0319 44.924 11.72 44.924C11.408 44.924 11.148 44.6639 11.148 44.352C11.148 40.7639 14.0599 37.852 17.6479 37.852C21.236 37.852 24.1479 40.7639 24.1479 44.352C24.1479 47.9401 21.2357 50.852 17.648 50.852ZM11.3039 46.848C11.408 46.9521 11.564 47.004 11.72 47.004C11.8466 47.004 11.9733 46.9354 12.0722 46.8818C12.0951 46.8694 12.1165 46.8578 12.1361 46.848L13.904 45.0801C14.1119 44.8719 14.1119 44.4559 13.904 44.2481C13.6958 44.0402 13.2798 44.0402 13.0719 44.2481L11.72 45.6L10.3681 44.2481C10.1599 44.0402 9.74388 44.0402 9.53604 44.2481C9.32819 44.4562 9.32819 44.8723 9.53604 45.0801L11.3039 46.848Z"/>
</mask>
<path fill-rule="evenodd" clip-rule="evenodd" d="M36.3679 12.0079C35.4321 12.0079 34.6 11.4359 34.2359 10.5519C33.872 9.77204 33.0922 9.19999 32.2079 9.19999C31.3239 9.19999 30.5437 9.72014 30.1799 10.5519C29.8157 11.4358 28.984 12.0079 28.0478 12.0079C26.7478 12.0079 25.7597 10.968 25.7597 9.7198L25.76 5.40409C25.76 4.62424 26.3839 4 27.1641 4H37.3041C38.084 4 38.7082 4.62389 38.7082 5.40409V9.77199C38.656 11.0201 37.6679 12.0078 36.3679 12.0078L36.3679 12.0079ZM32.2079 8.05599C33.5598 8.05599 34.8079 8.88807 35.328 10.1358C35.5359 10.6037 35.9001 10.8638 36.3679 10.8638C36.9918 10.8638 37.5119 10.3959 37.5119 9.7716V5.40407C37.5119 5.29997 37.4078 5.19623 37.3041 5.19623L27.1121 5.19587C27.008 5.19587 26.9043 5.29997 26.9043 5.40371V9.77161C26.9043 10.3955 27.3722 10.8638 27.9965 10.8638C28.4644 10.8638 28.8804 10.6037 29.0364 10.1358C29.608 8.83581 30.8562 8.056 32.208 8.056L32.2079 8.05599ZM45.3119 51.736H29.192C28.88 51.736 28.6199 51.4759 28.6199 51.164C28.6199 50.852 28.88 50.592 29.192 50.592H45.2599C49.5759 50.592 53.0599 47.108 53.0599 42.792V8.73205H50.5639V39.88C50.5639 41.492 49.264 42.7919 47.652 42.7919H45.3121L45.3118 45.08C45.3118 46.6923 44.0118 47.9923 42.3999 47.9923L42.3999 47.992H30.7C30.388 47.992 30.1279 47.7319 30.1279 47.42C30.1279 47.1081 30.388 46.848 30.7 46.848H42.3999C43.3357 46.848 44.1159 46.0681 44.1159 45.132V42.2201C44.1159 41.9081 44.376 41.6481 44.6879 41.6481H47.5998C48.5357 41.6481 49.3158 40.8682 49.3158 39.9321V5.19613H40.7879C40.4759 5.19613 40.2158 4.93606 40.2158 4.62411C40.2158 4.31217 40.4759 4.0521 40.7879 4.0521H49.9919C50.3039 4.0521 50.5639 4.31217 50.5639 4.62411V7.58801H53.6319C53.9439 7.58801 54.2039 7.84809 54.2039 8.16003V42.74C54.2558 47.6799 50.2517 51.7359 45.3118 51.7359L45.3119 51.736ZM14.424 31.872C14.112 31.872 13.852 31.612 13.852 31.3V4.57208C13.852 4.26013 14.112 4.00006 14.424 4.00006H23.6281C23.94 4.00006 24.2001 4.26013 24.2001 4.57208C24.2001 4.88402 23.94 5.14409 23.6281 5.14409H15.0483V31.248C15.0483 31.6119 14.7882 31.8719 14.424 31.8719L14.424 31.872ZM6 44.352C6 50.7481 11.1999 56 17.648 56C24.0438 56 29.2956 50.7479 29.296 44.352C29.296 37.9559 24.0961 32.704 17.648 32.704C11.2 32.704 6 37.9561 6 44.352ZM7.196 44.352C7.196 38.5798 11.876 33.9 17.648 33.9C23.4202 33.9 28.1 38.5798 28.1 44.352C28.1 50.1242 23.42 54.804 17.648 54.804C11.8758 54.804 7.196 50.1242 7.196 44.352ZM17.648 50.852C17.336 50.852 17.076 50.5919 17.076 50.28C17.076 49.968 17.336 49.708 17.648 49.708C20.6122 49.708 23.004 47.3158 23.004 44.352C23.004 41.3882 20.56 38.996 17.648 38.996C14.6838 38.996 12.292 41.3882 12.292 44.352C12.292 44.6639 12.0319 44.924 11.72 44.924C11.408 44.924 11.148 44.6639 11.148 44.352C11.148 40.7639 14.0599 37.852 17.6479 37.852C21.236 37.852 24.1479 40.7639 24.1479 44.352C24.1479 47.9401 21.2357 50.852 17.648 50.852ZM11.3039 46.848C11.408 46.9521 11.564 47.004 11.72 47.004C11.8466 47.004 11.9733 46.9354 12.0722 46.8818C12.0951 46.8694 12.1165 46.8578 12.1361 46.848L13.904 45.0801C14.1119 44.8719 14.1119 44.4559 13.904 44.2481C13.6958 44.0402 13.2798 44.0402 13.0719 44.2481L11.72 45.6L10.3681 44.2481C10.1599 44.0402 9.74388 44.0402 9.53604 44.2481C9.32819 44.4562 9.32819 44.8723 9.53604 45.0801L11.3039 46.848Z" fill="white"/>
<path d="M34.2359 10.5519L34.6057 10.3995L34.6022 10.3911L34.5984 10.3828L34.2359 10.5519ZM36.3679 12.0079V12.4079H36.8023L36.7666 11.975L36.3679 12.0079ZM30.1799 10.5519L29.8133 10.3916L29.81 10.3995L30.1799 10.5519ZM25.7597 9.7198L25.3597 9.71977V9.7198H25.7597ZM25.76 5.40409L26.16 5.40412V5.40409H25.76ZM38.7082 9.77199L39.1079 9.78871L39.1082 9.78035V9.77199H38.7082ZM36.3679 12.0078V11.6078H35.9336L35.9693 12.0407L36.3679 12.0078ZM35.328 10.1358L34.9587 10.2898L34.9625 10.2982L35.328 10.1358ZM32.2079 8.05599V7.65599L32.1818 8.45514L32.2079 8.05599ZM37.3041 5.19623L37.3041 5.59623H37.3041V5.19623ZM27.1121 5.19587L27.1121 4.79587H27.1121V5.19587ZM29.0364 10.1358L28.6702 9.9748L28.6627 9.99176L28.6569 10.0093L29.0364 10.1358ZM32.208 8.056V8.456L32.234 7.65685L32.208 8.056ZM45.3119 51.736V52.136H46.3662L45.5772 51.4367L45.3119 51.736ZM53.0599 8.73205H53.4599V8.33205H53.0599V8.73205ZM50.5639 8.73205V8.33205H50.1639V8.73205H50.5639ZM45.3121 42.7919V42.3919H44.9122L44.9121 42.7919L45.3121 42.7919ZM45.3118 45.08L44.9118 45.08V45.08H45.3118ZM42.3999 47.9923L42.0053 47.9266L41.9277 48.3923H42.3999V47.9923ZM42.3999 47.992L42.7945 48.0578L42.8721 47.592H42.3999V47.992ZM49.3158 5.19613H49.7158V4.79613H49.3158V5.19613ZM50.5639 7.58801H50.1639V7.98801H50.5639V7.58801ZM54.2039 42.74H53.8039L53.8039 42.7442L54.2039 42.74ZM45.3118 51.7359V51.3359H44.2574L45.0464 52.0352L45.3118 51.7359ZM14.424 31.872V32.272H14.7389L14.8128 31.9659L14.424 31.872ZM15.0483 5.14409V4.74409H14.6483V5.14409H15.0483ZM14.424 31.8719V31.4719H14.1091L14.0352 31.7781L14.424 31.8719ZM29.296 44.352L29.696 44.352V44.352H29.296ZM11.3039 46.848L11.5868 46.5652L11.5868 46.5652L11.3039 46.848ZM12.0722 46.8818L12.2628 47.2335L12.2628 47.2335L12.0722 46.8818ZM12.1361 46.848L12.3145 47.2061L12.3728 47.177L12.4189 47.1309L12.1361 46.848ZM13.904 45.0801L14.1869 45.363L14.1871 45.3627L13.904 45.0801ZM13.904 44.2481L14.1869 43.9652L14.1866 43.965L13.904 44.2481ZM13.0719 44.2481L12.7891 43.9652L12.7891 43.9652L13.0719 44.2481ZM11.72 45.6L11.4372 45.8828L11.72 46.1656L12.0029 45.8828L11.72 45.6ZM10.3681 44.2481L10.651 43.9652L10.6507 43.965L10.3681 44.2481ZM9.53604 44.2481L9.25319 43.9652L9.25295 43.9655L9.53604 44.2481ZM9.53604 45.0801L9.25319 45.363L9.25319 45.363L9.53604 45.0801ZM33.866 10.7043C34.2895 11.7321 35.2637 12.4079 36.3679 12.4079V11.6079C35.6006 11.6079 34.9106 11.1397 34.6057 10.3995L33.866 10.7043ZM32.2079 9.59999C32.9161 9.59999 33.566 10.0623 33.8734 10.721L34.5984 10.3828C34.178 9.48183 33.2683 8.79999 32.2079 8.79999V9.59999ZM30.5463 10.7122C30.8487 10.0209 31.4884 9.59999 32.2079 9.59999V8.79999C31.1594 8.79999 30.2386 9.41937 29.8134 10.3916L30.5463 10.7122ZM28.0478 12.4079C29.1524 12.4079 30.1263 11.732 30.5497 10.7043L29.81 10.3995C29.5051 11.1397 28.8155 11.6079 28.0478 11.6079V12.4079ZM25.3597 9.7198C25.3597 11.183 26.521 12.4079 28.0478 12.4079V11.6079C26.9746 11.6079 26.1597 10.753 26.1597 9.7198H25.3597ZM25.36 5.40406L25.3597 9.71977L26.1597 9.71984L26.16 5.40412L25.36 5.40406ZM27.1641 3.6C26.163 3.6 25.36 4.40339 25.36 5.40409H26.16C26.16 4.84509 26.6049 4.4 27.1641 4.4V3.6ZM37.3041 3.6H27.1641V4.4H37.3041V3.6ZM39.1082 5.40409C39.1082 4.40291 38.3048 3.6 37.3041 3.6V4.4C37.8631 4.4 38.3082 4.84487 38.3082 5.40409H39.1082ZM39.1082 9.77199V5.40409H38.3082V9.77199H39.1082ZM36.3679 12.4078C37.886 12.4078 39.0468 11.2474 39.1079 9.78871L38.3086 9.75526C38.2651 10.7928 37.4499 11.6078 36.3679 11.6078V12.4078ZM36.7666 11.975L36.7666 11.9749L35.9693 12.0407L35.9693 12.0408L36.7666 11.975ZM35.6972 9.98188C35.1149 8.58517 33.7213 7.65599 32.2079 7.65599V8.45599C33.3983 8.45599 34.5008 9.19098 34.9588 10.2897L35.6972 9.98188ZM36.3679 10.4638C36.0809 10.4638 35.847 10.3188 35.6936 9.97343L34.9625 10.2982C35.2247 10.8886 35.7192 11.2638 36.3679 11.2638V10.4638ZM37.1119 9.7716C37.1119 10.151 36.7956 10.4638 36.3679 10.4638V11.2638C37.188 11.2638 37.9119 10.6407 37.9119 9.7716H37.1119ZM37.1119 5.40407V9.7716H37.9119V5.40407H37.1119ZM37.3041 5.59623C37.226 5.59623 37.1814 5.56125 37.1642 5.54412C37.147 5.52693 37.1119 5.48222 37.1119 5.40407H37.9119C37.9119 5.22182 37.8248 5.07319 37.7296 4.97811C37.6345 4.88308 37.486 4.79623 37.3041 4.79623V5.59623ZM27.1121 5.59587L37.3041 5.59623L37.3041 4.79623L27.1121 4.79587L27.1121 5.59587ZM27.3043 5.40371C27.3043 5.48182 27.2693 5.52642 27.2522 5.54357C27.235 5.56077 27.1903 5.59587 27.1121 5.59587V4.79587C26.9299 4.79587 26.7812 4.88301 26.6862 4.97821C26.5911 5.07334 26.5043 5.22186 26.5043 5.40371H27.3043ZM27.3043 9.77161V5.40371H26.5043V9.77161H27.3043ZM27.9965 10.4638C27.5932 10.4638 27.3043 10.1747 27.3043 9.77161H26.5043C26.5043 10.6163 27.1512 11.2638 27.9965 11.2638V10.4638ZM28.6569 10.0093C28.5611 10.2966 28.3112 10.4638 27.9965 10.4638V11.2638C28.6176 11.2638 29.1997 10.9108 29.4158 10.2623L28.6569 10.0093ZM32.208 7.656C30.7001 7.656 29.3067 8.52725 28.6702 9.9748L29.4025 10.2968C29.9093 9.14437 31.0123 8.456 32.208 8.456V7.656ZM32.1818 8.45514L32.182 8.45515L32.234 7.65685L32.2339 7.65684L32.1818 8.45514ZM29.192 52.136H45.3119V51.336H29.192V52.136ZM28.2199 51.164C28.2199 51.6968 28.6591 52.136 29.192 52.136V51.336C29.1009 51.336 29.0199 51.255 29.0199 51.164H28.2199ZM29.192 50.192C28.6591 50.192 28.2199 50.6311 28.2199 51.164H29.0199C29.0199 51.073 29.1009 50.992 29.192 50.992V50.192ZM45.2599 50.192H29.192V50.992H45.2599V50.192ZM52.6599 42.792C52.6599 46.8871 49.355 50.192 45.2599 50.192V50.992C49.7968 50.992 53.4599 47.3289 53.4599 42.792H52.6599ZM52.6599 8.73205V42.792H53.4599V8.73205H52.6599ZM50.5639 9.13205H53.0599V8.33205H50.5639V9.13205ZM50.964 39.88V8.73205H50.1639V39.88H50.964ZM47.652 43.1919C49.4849 43.1919 50.964 41.7129 50.964 39.88H50.1639C50.1639 41.271 49.043 42.3919 47.652 42.3919V43.1919ZM45.3121 43.1919H47.652V42.3919H45.3121V43.1919ZM45.7118 45.0801L45.7121 42.792L44.9121 42.7919L44.9118 45.08L45.7118 45.0801ZM42.3999 48.3923C44.2327 48.3923 45.7118 46.9132 45.7118 45.08H44.9118C44.9118 46.4714 43.7908 47.5923 42.3999 47.5923V48.3923ZM42.0054 47.9263L42.0053 47.9266L42.7944 48.0581L42.7945 48.0578L42.0054 47.9263ZM30.7 48.392H42.3999V47.592H30.7V48.392ZM29.7279 47.42C29.7279 47.9529 30.1671 48.392 30.7 48.392V47.592C30.6089 47.592 30.5279 47.511 30.5279 47.42H29.7279ZM30.7 46.448C30.1671 46.448 29.7279 46.8871 29.7279 47.42H30.5279C30.5279 47.329 30.6089 47.248 30.7 47.248V46.448ZM42.3999 46.448H30.7V47.248H42.3999V46.448ZM43.7159 45.132C43.7159 45.8472 43.1149 46.448 42.3999 46.448V47.248C43.5566 47.248 44.5159 46.2891 44.5159 45.132H43.7159ZM43.7159 42.2201V45.132H44.5159V42.2201H43.7159ZM44.6879 41.2481C44.1551 41.2481 43.7159 41.6872 43.7159 42.2201H44.5159C44.5159 42.129 44.5969 42.0481 44.6879 42.0481V41.2481ZM47.5998 41.2481H44.6879V42.0481H47.5998V41.2481ZM48.9158 39.9321C48.9158 40.6472 48.3148 41.2481 47.5998 41.2481V42.0481C48.7565 42.0481 49.7158 41.0892 49.7158 39.9321H48.9158ZM48.9158 5.19613V39.9321H49.7158V5.19613H48.9158ZM40.7879 5.59613H49.3158V4.79613H40.7879V5.59613ZM39.8158 4.62411C39.8158 5.15697 40.255 5.59613 40.7879 5.59613V4.79613C40.6968 4.79613 40.6158 4.71514 40.6158 4.62411H39.8158ZM40.7879 3.6521C40.255 3.6521 39.8158 4.09126 39.8158 4.62411H40.6158C40.6158 4.53308 40.6968 4.4521 40.7879 4.4521V3.6521ZM49.9919 3.6521H40.7879V4.4521H49.9919V3.6521ZM50.964 4.62411C50.964 4.09126 50.5248 3.6521 49.9919 3.6521V4.4521C50.083 4.4521 50.1639 4.53308 50.1639 4.62411H50.964ZM50.964 7.58801V4.62411H50.1639V7.58801H50.964ZM53.6319 7.18801H50.5639V7.98801H53.6319V7.18801ZM54.6039 8.16003C54.6039 7.62717 54.1648 7.18801 53.6319 7.18801V7.98801C53.7229 7.98801 53.8039 8.069 53.8039 8.16003H54.6039ZM54.6039 42.74V8.16003H53.8039V42.74H54.6039ZM45.3118 52.1359C50.4749 52.1359 54.6581 47.8976 54.6039 42.7358L53.8039 42.7442C53.8535 47.4621 50.0286 51.3359 45.3118 51.3359V52.1359ZM45.5772 51.4367L45.5771 51.4365L45.0464 52.0352L45.0466 52.0353L45.5772 51.4367ZM13.452 31.3C13.452 31.8329 13.8911 32.272 14.424 32.272V31.472C14.333 31.472 14.252 31.3911 14.252 31.3H13.452ZM13.452 4.57208V31.3H14.252V4.57208H13.452ZM14.424 3.60006C13.8911 3.60006 13.452 4.03922 13.452 4.57208H14.252C14.252 4.48105 14.333 4.40006 14.424 4.40006V3.60006ZM23.6281 3.60006H14.424V4.40006H23.6281V3.60006ZM24.6001 4.57208C24.6001 4.03922 24.1609 3.60006 23.6281 3.60006V4.40006C23.7191 4.40006 23.8001 4.48105 23.8001 4.57208H24.6001ZM23.6281 5.54409C24.1609 5.54409 24.6001 5.10493 24.6001 4.57208H23.8001C23.8001 4.66311 23.7191 4.74409 23.6281 4.74409V5.54409ZM15.0483 5.54409H23.6281V4.74409H15.0483V5.54409ZM15.4483 31.248V5.14409H14.6483V31.248H15.4483ZM14.424 32.2719C15.009 32.2719 15.4483 31.8329 15.4483 31.248H14.6483C14.6483 31.3908 14.5674 31.4719 14.424 31.4719V32.2719ZM14.8128 31.9659L14.8128 31.9658L14.0352 31.7781L14.0352 31.7782L14.8128 31.9659ZM17.648 55.6C11.422 55.6 6.4 50.5284 6.4 44.352H5.6C5.6 50.9678 10.9778 56.4 17.648 56.4V55.6ZM28.896 44.352C28.8956 50.527 23.8228 55.6 17.648 55.6V56.4C24.2647 56.4 29.6956 50.9688 29.696 44.352L28.896 44.352ZM17.648 33.104C23.874 33.104 28.896 38.1757 28.896 44.352H29.696C29.696 37.7362 24.3181 32.304 17.648 32.304V33.104ZM6.4 44.352C6.4 38.1759 11.4221 33.104 17.648 33.104V32.304C10.9779 32.304 5.6 37.7364 5.6 44.352H6.4ZM17.648 33.5C11.6551 33.5 6.796 38.3589 6.796 44.352H7.596C7.596 38.8008 12.0969 34.3 17.648 34.3V33.5ZM28.5 44.352C28.5 38.3589 23.6411 33.5 17.648 33.5V34.3C23.1992 34.3 27.7 38.8008 27.7 44.352H28.5ZM17.648 55.204C23.6409 55.204 28.5 50.3451 28.5 44.352H27.7C27.7 49.9033 23.1991 54.404 17.648 54.404V55.204ZM6.796 44.352C6.796 50.3451 11.6549 55.204 17.648 55.204V54.404C12.0967 54.404 7.596 49.9033 7.596 44.352H6.796ZM16.676 50.28C16.676 50.8129 17.1151 51.252 17.648 51.252V50.452C17.5569 50.452 17.476 50.371 17.476 50.28H16.676ZM17.648 49.308C17.1151 49.308 16.676 49.7471 16.676 50.28H17.476C17.476 50.189 17.5569 50.108 17.648 50.108V49.308ZM22.604 44.352C22.604 47.0949 20.3912 49.308 17.648 49.308V50.108C20.8331 50.108 23.404 47.5367 23.404 44.352H22.604ZM17.648 39.396C20.3416 39.396 22.604 41.6116 22.604 44.352H23.404C23.404 41.1647 20.7784 38.596 17.648 38.596V39.396ZM12.692 44.352C12.692 41.6091 14.9047 39.396 17.648 39.396V38.596C14.4629 38.596 11.892 41.1673 11.892 44.352H12.692ZM11.72 45.324C12.2528 45.324 12.692 44.8848 12.692 44.352H11.892C11.892 44.443 11.811 44.524 11.72 44.524V45.324ZM10.748 44.352C10.748 44.8848 11.1871 45.324 11.72 45.324V44.524C11.6289 44.524 11.548 44.443 11.548 44.352H10.748ZM17.6479 37.452C13.8389 37.452 10.748 40.543 10.748 44.352H11.548C11.548 40.9848 14.2808 38.252 17.6479 38.252V37.452ZM24.5479 44.352C24.5479 40.543 21.4569 37.452 17.6479 37.452V38.252C21.0151 38.252 23.7479 40.9848 23.7479 44.352H24.5479ZM17.648 51.252C21.4566 51.252 24.5479 48.161 24.5479 44.352H23.7479C23.7479 47.7191 21.0148 50.452 17.648 50.452V51.252ZM11.72 46.604C11.6432 46.604 11.5988 46.5772 11.5868 46.5652L11.0211 47.1309C11.2173 47.3271 11.4848 47.404 11.72 47.404V46.604ZM11.8817 46.5301C11.8295 46.5584 11.7931 46.5776 11.7584 46.5914C11.7239 46.6052 11.7135 46.604 11.72 46.604V47.404C11.9664 47.404 12.1849 47.2757 12.2628 47.2335L11.8817 46.5301ZM11.9577 46.49C11.9308 46.5034 11.903 46.5185 11.8817 46.5301L12.2628 47.2335C12.2872 47.2202 12.3023 47.2122 12.3145 47.2061L11.9577 46.49ZM13.6212 44.7973L11.8533 46.5652L12.4189 47.1309L14.1869 45.363L13.6212 44.7973ZM13.6212 44.5309C13.633 44.5428 13.6599 44.5872 13.6599 44.664C13.6599 44.7407 13.633 44.7854 13.6209 44.7975L14.1871 45.3627C14.3828 45.1667 14.4599 44.8993 14.4599 44.664C14.4599 44.4287 14.3828 44.1612 14.1869 43.9652L13.6212 44.5309ZM13.3548 44.5309C13.3666 44.519 13.4111 44.4922 13.4878 44.4922C13.5645 44.4922 13.6093 44.519 13.6214 44.5311L14.1866 43.965C13.9906 43.7692 13.7232 43.6922 13.4878 43.6922C13.2525 43.6922 12.9851 43.7692 12.7891 43.9652L13.3548 44.5309ZM12.0029 45.8828L13.3548 44.5309L12.7891 43.9652L11.4372 45.3171L12.0029 45.8828ZM10.0853 44.5309L11.4372 45.8828L12.0029 45.3171L10.651 43.9652L10.0853 44.5309ZM9.81888 44.5309C9.83074 44.519 9.87521 44.4922 9.95195 44.4922C10.0287 44.4922 10.0734 44.519 10.0855 44.5311L10.6507 43.965C10.4547 43.7692 10.1873 43.6922 9.95195 43.6922C9.71665 43.6922 9.44917 43.7692 9.25319 43.9652L9.81888 44.5309ZM9.81888 44.7973C9.80701 44.7854 9.78015 44.741 9.78015 44.6642C9.78015 44.5875 9.807 44.5428 9.81912 44.5307L9.25295 43.9655C9.05723 44.1615 8.98015 44.4289 8.98015 44.6642C8.98015 44.8995 9.05722 45.167 9.25319 45.363L9.81888 44.7973ZM11.5868 46.5652L9.81888 44.7973L9.25319 45.363L11.0211 47.1309L11.5868 46.5652Z" fill="white" mask="url(#path-1-outside-1_118_355)"/>
</svg>
