<svg width="60" height="60" viewBox="0 0 60 60" fill="none" xmlns="http://www.w3.org/2000/svg">
<mask id="path-1-outside-1_102_271" maskUnits="userSpaceOnUse" x="4" y="4" width="52" height="52" fill="black">
<rect fill="white" x="4" y="4" width="52" height="52"/>
<path d="M46.024 10.8095H46.0236C42.0235 7.47178 37.0811 5.46624 31.8865 5.07223C31.8695 5.07264 31.8525 5.07183 31.8359 5.07021C30.1202 4.94007 28.3955 4.99099 26.6906 5.22177C14.5494 6.63837 4.79731 17.7891 5.00425 29.9943C4.74193 43.5115 16.6664 55.3422 30.1693 54.9924C34.425 54.9476 38.5994 53.8244 42.3033 51.7283C46.0073 49.6322 49.1195 46.6316 51.3489 43.0066L51.3501 43.0042C54.466 37.8897 55.6421 31.8264 54.6648 25.9183C53.6871 20.0097 50.621 14.6485 46.0238 10.8098L46.024 10.8095ZM6.37101 29.9937C6.3702 28.039 6.6119 26.0918 7.09045 24.1962L9.17518 27.2364C9.3025 27.4228 9.51348 27.5339 9.73861 27.5339H14.2133L12.6799 31.7503L9.62748 33.3738C9.32474 33.5347 9.18813 33.8948 9.30818 34.2157L10.5142 37.4536L8.6918 40.2169C7.16437 37.0255 6.37184 33.5323 6.37101 29.9937ZM9.41491 41.6039L11.8465 37.917C11.9665 37.7347 11.9928 37.5064 11.9164 37.3019L10.798 34.2996L13.5537 32.8337C13.7029 32.7544 13.8172 32.6227 13.875 32.4638L15.8313 27.0839C15.9076 26.8745 15.8765 26.6409 15.7488 26.4582C15.6207 26.2755 15.4117 26.1668 15.189 26.1668H10.0988L7.58681 22.5025C9.29128 17.3933 12.6944 13.0222 17.2298 10.1163L16.4638 19.8791C16.4469 20.0965 16.5346 20.3087 16.6999 20.451L23.2181 26.0557L19.1213 27.2416C18.9451 27.2921 18.7967 27.4121 18.7098 27.5738L15.3568 33.7925C15.2565 33.978 15.2476 34.1991 15.3329 34.3919L16.311 36.6141C16.4036 36.8234 16.5944 36.973 16.8199 37.0122L25.5385 38.5218L24.1728 49.3209L22.2618 52.3227V52.3231C16.8114 50.4441 12.2402 46.6299 9.41492 41.6037L9.41491 41.6039ZM30.1659 53.625C30.1118 53.625 30.0572 53.6246 30.0031 53.6242C27.8431 53.6217 25.6933 53.3263 23.6129 52.7455L25.4075 49.9251C25.4617 49.8402 25.4964 49.744 25.509 49.6442L26.9762 38.0453H26.9766C27.0222 37.6828 26.7749 37.3485 26.4152 37.2859L17.4141 35.7274L16.718 34.1468L19.7768 28.4742L24.8113 27.0167L24.8109 27.0171C25.0522 26.9472 25.2357 26.7512 25.2891 26.5058C25.3424 26.2605 25.2571 26.0059 25.0668 25.8422L17.8537 19.6401L18.6677 9.26115C22.6728 7.07258 27.2263 6.09159 31.7775 6.43717C31.7985 6.4392 31.8195 6.4392 31.8409 6.4396V6.4392C36.4466 6.79972 40.8457 8.50092 44.4954 11.333L35.8609 18.2824C35.7125 18.402 35.6208 18.5778 35.6078 18.7682C35.5945 18.9581 35.6616 19.1449 35.7921 19.2835L40.0332 23.7816L38.7224 25.7762H38.7228C38.5866 25.9839 38.5737 26.2491 38.6889 26.4693L39.9136 28.8014L35.2646 33.1274C35.1236 33.2587 35.0448 33.4434 35.0468 33.6362C35.0492 33.8286 35.1329 34.0113 35.2772 34.1394L38.9803 37.4233C39.144 37.568 39.3671 37.6258 39.5805 37.5793L45.2459 36.3345L45.8881 39.8978C45.9209 40.0776 46.024 40.2369 46.1747 40.3403L49.8362 42.8474C47.6956 46.122 44.7808 48.8187 41.35 50.6985C37.9189 52.5783 34.0776 53.5835 30.1658 53.6251L30.1659 53.625ZM50.5455 41.6764L47.1831 39.3742L46.4653 35.3934C46.4322 35.2103 46.3263 35.0491 46.1715 34.946C46.0171 34.8421 45.8271 34.8065 45.6456 34.847L39.6265 36.1698L36.7467 33.6158L41.2271 29.4467C41.4527 29.2365 41.51 28.9015 41.367 28.6287L40.0865 26.1907L41.4725 24.0813C41.6459 23.817 41.6156 23.4678 41.3985 23.2374L37.2941 18.8845L45.5713 12.2224C49.6652 15.8082 52.3955 20.6975 53.3021 26.0634C54.2083 31.4297 53.2346 36.9442 50.5456 41.6759L50.5455 41.6764Z"/>
</mask>
<path d="M46.024 10.8095H46.0236C42.0235 7.47178 37.0811 5.46624 31.8865 5.07223C31.8695 5.07264 31.8525 5.07183 31.8359 5.07021C30.1202 4.94007 28.3955 4.99099 26.6906 5.22177C14.5494 6.63837 4.79731 17.7891 5.00425 29.9943C4.74193 43.5115 16.6664 55.3422 30.1693 54.9924C34.425 54.9476 38.5994 53.8244 42.3033 51.7283C46.0073 49.6322 49.1195 46.6316 51.3489 43.0066L51.3501 43.0042C54.466 37.8897 55.6421 31.8264 54.6648 25.9183C53.6871 20.0097 50.621 14.6485 46.0238 10.8098L46.024 10.8095ZM6.37101 29.9937C6.3702 28.039 6.6119 26.0918 7.09045 24.1962L9.17518 27.2364C9.3025 27.4228 9.51348 27.5339 9.73861 27.5339H14.2133L12.6799 31.7503L9.62748 33.3738C9.32474 33.5347 9.18813 33.8948 9.30818 34.2157L10.5142 37.4536L8.6918 40.2169C7.16437 37.0255 6.37184 33.5323 6.37101 29.9937ZM9.41491 41.6039L11.8465 37.917C11.9665 37.7347 11.9928 37.5064 11.9164 37.3019L10.798 34.2996L13.5537 32.8337C13.7029 32.7544 13.8172 32.6227 13.875 32.4638L15.8313 27.0839C15.9076 26.8745 15.8765 26.6409 15.7488 26.4582C15.6207 26.2755 15.4117 26.1668 15.189 26.1668H10.0988L7.58681 22.5025C9.29128 17.3933 12.6944 13.0222 17.2298 10.1163L16.4638 19.8791C16.4469 20.0965 16.5346 20.3087 16.6999 20.451L23.2181 26.0557L19.1213 27.2416C18.9451 27.2921 18.7967 27.4121 18.7098 27.5738L15.3568 33.7925C15.2565 33.978 15.2476 34.1991 15.3329 34.3919L16.311 36.6141C16.4036 36.8234 16.5944 36.973 16.8199 37.0122L25.5385 38.5218L24.1728 49.3209L22.2618 52.3227V52.3231C16.8114 50.4441 12.2402 46.6299 9.41492 41.6037L9.41491 41.6039ZM30.1659 53.625C30.1118 53.625 30.0572 53.6246 30.0031 53.6242C27.8431 53.6217 25.6933 53.3263 23.6129 52.7455L25.4075 49.9251C25.4617 49.8402 25.4964 49.744 25.509 49.6442L26.9762 38.0453H26.9766C27.0222 37.6828 26.7749 37.3485 26.4152 37.2859L17.4141 35.7274L16.718 34.1468L19.7768 28.4742L24.8113 27.0167L24.8109 27.0171C25.0522 26.9472 25.2357 26.7512 25.2891 26.5058C25.3424 26.2605 25.2571 26.0059 25.0668 25.8422L17.8537 19.6401L18.6677 9.26115C22.6728 7.07258 27.2263 6.09159 31.7775 6.43717C31.7985 6.4392 31.8195 6.4392 31.8409 6.4396V6.4392C36.4466 6.79972 40.8457 8.50092 44.4954 11.333L35.8609 18.2824C35.7125 18.402 35.6208 18.5778 35.6078 18.7682C35.5945 18.9581 35.6616 19.1449 35.7921 19.2835L40.0332 23.7816L38.7224 25.7762H38.7228C38.5866 25.9839 38.5737 26.2491 38.6889 26.4693L39.9136 28.8014L35.2646 33.1274C35.1236 33.2587 35.0448 33.4434 35.0468 33.6362C35.0492 33.8286 35.1329 34.0113 35.2772 34.1394L38.9803 37.4233C39.144 37.568 39.3671 37.6258 39.5805 37.5793L45.2459 36.3345L45.8881 39.8978C45.9209 40.0776 46.024 40.2369 46.1747 40.3403L49.8362 42.8474C47.6956 46.122 44.7808 48.8187 41.35 50.6985C37.9189 52.5783 34.0776 53.5835 30.1658 53.6251L30.1659 53.625ZM50.5455 41.6764L47.1831 39.3742L46.4653 35.3934C46.4322 35.2103 46.3263 35.0491 46.1715 34.946C46.0171 34.8421 45.8271 34.8065 45.6456 34.847L39.6265 36.1698L36.7467 33.6158L41.2271 29.4467C41.4527 29.2365 41.51 28.9015 41.367 28.6287L40.0865 26.1907L41.4725 24.0813C41.6459 23.817 41.6156 23.4678 41.3985 23.2374L37.2941 18.8845L45.5713 12.2224C49.6652 15.8082 52.3955 20.6975 53.3021 26.0634C54.2083 31.4297 53.2346 36.9442 50.5456 41.6759L50.5455 41.6764Z" fill="white"/>
<path d="M46.024 10.8095H46.0236C42.0235 7.47178 37.0811 5.46624 31.8865 5.07223C31.8695 5.07264 31.8525 5.07183 31.8359 5.07021C30.1202 4.94007 28.3955 4.99099 26.6906 5.22177C14.5494 6.63837 4.79731 17.7891 5.00425 29.9943C4.74193 43.5115 16.6664 55.3422 30.1693 54.9924C34.425 54.9476 38.5994 53.8244 42.3033 51.7283C46.0073 49.6322 49.1195 46.6316 51.3489 43.0066L51.3501 43.0042C54.466 37.8897 55.6421 31.8264 54.6648 25.9183C53.6871 20.0097 50.621 14.6485 46.0238 10.8098L46.024 10.8095ZM6.37101 29.9937C6.3702 28.039 6.6119 26.0918 7.09045 24.1962L9.17518 27.2364C9.3025 27.4228 9.51348 27.5339 9.73861 27.5339H14.2133L12.6799 31.7503L9.62748 33.3738C9.32474 33.5347 9.18813 33.8948 9.30818 34.2157L10.5142 37.4536L8.6918 40.2169C7.16437 37.0255 6.37184 33.5323 6.37101 29.9937ZM9.41491 41.6039L11.8465 37.917C11.9665 37.7347 11.9928 37.5064 11.9164 37.3019L10.798 34.2996L13.5537 32.8337C13.7029 32.7544 13.8172 32.6227 13.875 32.4638L15.8313 27.0839C15.9076 26.8745 15.8765 26.6409 15.7488 26.4582C15.6207 26.2755 15.4117 26.1668 15.189 26.1668H10.0988L7.58681 22.5025C9.29128 17.3933 12.6944 13.0222 17.2298 10.1163L16.4638 19.8791C16.4469 20.0965 16.5346 20.3087 16.6999 20.451L23.2181 26.0557L19.1213 27.2416C18.9451 27.2921 18.7967 27.4121 18.7098 27.5738L15.3568 33.7925C15.2565 33.978 15.2476 34.1991 15.3329 34.3919L16.311 36.6141C16.4036 36.8234 16.5944 36.973 16.8199 37.0122L25.5385 38.5218L24.1728 49.3209L22.2618 52.3227V52.3231C16.8114 50.4441 12.2402 46.6299 9.41492 41.6037L9.41491 41.6039ZM30.1659 53.625C30.1118 53.625 30.0572 53.6246 30.0031 53.6242C27.8431 53.6217 25.6933 53.3263 23.6129 52.7455L25.4075 49.9251C25.4617 49.8402 25.4964 49.744 25.509 49.6442L26.9762 38.0453H26.9766C27.0222 37.6828 26.7749 37.3485 26.4152 37.2859L17.4141 35.7274L16.718 34.1468L19.7768 28.4742L24.8113 27.0167L24.8109 27.0171C25.0522 26.9472 25.2357 26.7512 25.2891 26.5058C25.3424 26.2605 25.2571 26.0059 25.0668 25.8422L17.8537 19.6401L18.6677 9.26115C22.6728 7.07258 27.2263 6.09159 31.7775 6.43717C31.7985 6.4392 31.8195 6.4392 31.8409 6.4396V6.4392C36.4466 6.79972 40.8457 8.50092 44.4954 11.333L35.8609 18.2824C35.7125 18.402 35.6208 18.5778 35.6078 18.7682C35.5945 18.9581 35.6616 19.1449 35.7921 19.2835L40.0332 23.7816L38.7224 25.7762H38.7228C38.5866 25.9839 38.5737 26.2491 38.6889 26.4693L39.9136 28.8014L35.2646 33.1274C35.1236 33.2587 35.0448 33.4434 35.0468 33.6362C35.0492 33.8286 35.1329 34.0113 35.2772 34.1394L38.9803 37.4233C39.144 37.568 39.3671 37.6258 39.5805 37.5793L45.2459 36.3345L45.8881 39.8978C45.9209 40.0776 46.024 40.2369 46.1747 40.3403L49.8362 42.8474C47.6956 46.122 44.7808 48.8187 41.35 50.6985C37.9189 52.5783 34.0776 53.5835 30.1658 53.6251L30.1659 53.625ZM50.5455 41.6764L47.1831 39.3742L46.4653 35.3934C46.4322 35.2103 46.3263 35.0491 46.1715 34.946C46.0171 34.8421 45.8271 34.8065 45.6456 34.847L39.6265 36.1698L36.7467 33.6158L41.2271 29.4467C41.4527 29.2365 41.51 28.9015 41.367 28.6287L40.0865 26.1907L41.4725 24.0813C41.6459 23.817 41.6156 23.4678 41.3985 23.2374L37.2941 18.8845L45.5713 12.2224C49.6652 15.8082 52.3955 20.6975 53.3021 26.0634C54.2083 31.4297 53.2346 36.9442 50.5456 41.6759L50.5455 41.6764Z" stroke="white" stroke-width="0.6" mask="url(#path-1-outside-1_102_271)"/>
</svg>
