<svg width="60" height="60" viewBox="0 0 60 60" fill="none" xmlns="http://www.w3.org/2000/svg">
<path d="M30.0171 52.2759C29.6556 52.2759 29.3175 52.0977 29.1129 51.7994L21.0865 40.0892L7.46987 36.0753C7.12294 35.9728 6.84869 35.7062 6.73662 35.3623C6.62494 35.0181 6.68996 34.6413 6.91027 34.3544L15.5677 23.1025L15.1772 8.91111C15.1668 8.54965 15.3363 8.20655 15.6285 7.99388C15.9215 7.78121 16.301 7.72728 16.6406 7.84739L30.0174 12.6049L43.3931 7.84817C43.7332 7.72806 44.1126 7.782 44.4052 7.99467C44.6975 8.20734 44.8669 8.55082 44.8566 8.91189L44.4553 23.4921C44.4393 24.0876 43.9516 24.5585 43.3598 24.5585C43.3495 24.5585 43.3395 24.5585 43.3292 24.5581C42.7237 24.5417 42.2463 24.0372 42.2632 23.4317L42.62 10.4505L30.385 14.8021C30.1471 14.8867 29.8882 14.8867 29.6502 14.8021L17.4152 10.4505L17.7721 23.4317C17.7794 23.6837 17.6987 23.9308 17.5449 24.1301L9.62568 34.4224L22.082 38.094C22.3237 38.1651 22.5337 38.3177 22.6764 38.5254L30.0177 49.2388L37.3594 38.5274C37.502 38.3197 37.712 38.1671 37.9538 38.0959L50.4091 34.4243L45.3628 27.8657C44.9933 27.3853 45.0832 26.6971 45.5629 26.3277C46.0425 25.9594 46.7318 26.0481 47.1009 26.5277L53.1233 34.3548C53.3436 34.6409 53.409 35.0184 53.297 35.3627C53.1853 35.7066 52.911 35.9732 52.5637 36.0757L38.9471 40.0896L30.9215 51.7997C30.7169 52.0981 30.3787 52.2763 30.0173 52.2763L30.0171 52.2759Z" fill="white"/>
</svg>
