<svg width="91" height="17" viewBox="0 0 91 17" fill="none" xmlns="http://www.w3.org/2000/svg">
<path d="M2.728 0.672L6.12 6L9.464 0.672H11.944V12H9.624V4.176L6.6 9.072H5.56L2.504 4.176V12H0.2V0.672H2.728ZM17.9566 12.128C16.5913 12.128 15.5406 11.744 14.8046 10.976C14.0686 10.1973 13.7006 9.12 13.7006 7.744C13.7006 7.08267 13.7966 6.48533 13.9886 5.952C14.1913 5.408 14.4686 4.944 14.8206 4.56C15.1833 4.176 15.626 3.888 16.1486 3.696C16.682 3.49333 17.2846 3.392 17.9566 3.392C18.618 3.392 19.21 3.49333 19.7326 3.696C20.266 3.888 20.714 4.176 21.0766 4.56C21.45 4.944 21.7326 5.408 21.9246 5.952C22.1273 6.48533 22.2286 7.08267 22.2286 7.744C22.2286 9.13067 21.8553 10.208 21.1086 10.976C20.3726 11.744 19.322 12.128 17.9566 12.128ZM17.9566 5.408C17.274 5.408 16.762 5.632 16.4206 6.08C16.09 6.528 15.9246 7.088 15.9246 7.76C15.9246 8.44267 16.09 9.008 16.4206 9.456C16.762 9.904 17.274 10.128 17.9566 10.128C18.6393 10.128 19.1406 9.904 19.4606 9.456C19.7913 9.008 19.9566 8.44267 19.9566 7.76C19.9566 7.088 19.7913 6.528 19.4606 6.08C19.1406 5.632 18.6393 5.408 17.9566 5.408ZM27.8533 2.848C26.9786 2.848 26.2533 2.63467 25.6773 2.208C25.1119 1.77067 24.7759 1.11467 24.6693 0.24H26.6373C26.7119 0.538666 26.8559 0.773333 27.0693 0.943999C27.2826 1.11467 27.5439 1.2 27.8533 1.2C28.1626 1.2 28.4239 1.11467 28.6373 0.943999C28.8506 0.773333 28.9893 0.538666 29.0533 0.24H31.0373C30.9199 1.11467 30.5786 1.77067 30.0133 2.208C29.4479 2.63467 28.7279 2.848 27.8533 2.848ZM25.9333 8.608L29.8373 3.568H31.7733V12H29.5013V7.12L25.7093 12H23.6773V3.568H25.9333V8.608Z" fill="#2D2928"/>
<path d="M36.1763 7.392V12H33.8563V0.672H36.1763V5.344H37.3763L40.6723 0.672H43.3603L39.3603 6.048L43.4083 12H40.7043L37.6003 7.392H36.1763ZM47.9931 9.792L49.8651 3.568H52.3131L50.1691 9.856C49.9771 10.4533 49.7851 11.0293 49.5931 11.584C49.4118 12.1387 49.2145 12.7093 49.0011 13.296C48.8091 13.7973 48.6011 14.2293 48.3771 14.592C48.1638 14.9547 47.9185 15.264 47.6411 15.52C47.3318 15.7973 46.9585 16.016 46.5211 16.176C46.0838 16.3467 45.5345 16.432 44.8731 16.432H44.3131V14.464H44.6651C45.2731 14.464 45.7425 14.32 46.0731 14.032C46.4145 13.7547 46.6918 13.3387 46.9051 12.784L43.0331 3.568H45.7211L47.9771 9.792H47.9931ZM55.4805 4.704C55.8112 4.29867 56.2218 3.984 56.7125 3.76C57.2138 3.52533 57.7152 3.40267 58.2165 3.392C58.8138 3.38133 59.3685 3.488 59.8805 3.712C60.3925 3.92533 60.8192 4.288 61.1605 4.8C61.4378 5.17333 61.6405 5.61067 61.7685 6.112C61.8965 6.61333 61.9605 7.14133 61.9605 7.696C61.9605 8.38933 61.8752 9.01867 61.7045 9.584C61.5445 10.1387 61.2672 10.6187 60.8725 11.024C60.5418 11.3867 60.1365 11.664 59.6565 11.856C59.1765 12.0373 58.6965 12.128 58.2165 12.128C57.9818 12.128 57.7472 12.112 57.5125 12.08C57.2778 12.0587 57.0432 12.0107 56.8085 11.936C56.5738 11.8613 56.3392 11.7547 56.1045 11.616C55.8805 11.4773 55.6672 11.2907 55.4645 11.056V15.52H53.2085V3.568H55.3525L55.4805 4.704ZM57.5925 5.408C57.2618 5.408 56.9632 5.472 56.6965 5.6C56.4405 5.71733 56.2218 5.88267 56.0405 6.096C55.8592 6.30933 55.7152 6.55467 55.6085 6.832C55.5125 7.10933 55.4645 7.408 55.4645 7.728C55.4538 8.44267 55.6405 9.01867 56.0245 9.456C56.4192 9.88267 56.9525 10.1067 57.6245 10.128C57.9872 10.128 58.2965 10.0693 58.5525 9.952C58.8085 9.83467 59.0165 9.66933 59.1765 9.456C59.3472 9.24267 59.4752 8.992 59.5605 8.704C59.6565 8.416 59.7045 8.10133 59.7045 7.76C59.7045 7.42933 59.6565 7.12 59.5605 6.832C59.4752 6.544 59.3418 6.29333 59.1605 6.08C58.9898 5.86667 58.7765 5.70133 58.5205 5.584C58.2645 5.46667 57.9552 5.408 57.5925 5.408ZM65.6051 3.568V6.048H67.5251C67.9945 6.048 68.4211 6.09067 68.8051 6.176C69.1891 6.25067 69.5305 6.39467 69.8291 6.608C70.1598 6.832 70.4211 7.14667 70.6131 7.552C70.8051 7.94667 70.8905 8.42667 70.8691 8.992C70.8478 9.504 70.7465 9.94133 70.5651 10.304C70.3945 10.656 70.1598 10.96 69.8611 11.216C69.4451 11.5573 68.9918 11.776 68.5011 11.872C68.0211 11.9573 67.5358 12 67.0451 12H63.3491V3.568H65.6051ZM67.1891 10.096C67.3811 10.096 67.5625 10.08 67.7331 10.048C67.9038 10.0053 68.0531 9.94133 68.1811 9.856C68.3198 9.77067 68.4265 9.65333 68.5011 9.504C68.5758 9.35467 68.6131 9.17333 68.6131 8.96C68.6131 8.75733 68.5705 8.592 68.4851 8.464C68.4105 8.336 68.3091 8.23467 68.1811 8.16C68.0638 8.08533 67.9305 8.03733 67.7811 8.016C67.6425 7.99467 67.5038 7.984 67.3651 7.984H65.6051V10.096H67.1891ZM76.1423 10.288C76.4623 10.288 76.7343 10.24 76.9583 10.144C77.1929 10.0373 77.3849 9.86667 77.5343 9.632H79.9023C79.7849 10.0693 79.6036 10.448 79.3583 10.768C79.1236 11.088 78.8356 11.3493 78.4943 11.552C78.1636 11.7547 77.7956 11.904 77.3903 12C76.9849 12.0853 76.5583 12.128 76.1102 12.128C74.7449 12.128 73.7103 11.744 73.0063 10.976C72.3129 10.208 71.9663 9.13067 71.9663 7.744C71.9663 7.11467 72.0569 6.53333 72.2383 6C72.4303 5.46667 72.6969 5.008 73.0383 4.624C73.3796 4.22933 73.8009 3.92533 74.3023 3.712C74.8143 3.49867 75.3956 3.392 76.0463 3.392C76.8036 3.392 77.4596 3.52533 78.0143 3.792C78.5689 4.05867 79.0063 4.42667 79.3263 4.896C79.6569 5.35467 79.8756 5.89333 79.9823 6.512C80.0996 7.13067 80.0996 7.792 79.9823 8.496H74.2223C74.2649 8.99733 74.4409 9.424 74.7503 9.776C75.0596 10.1173 75.5236 10.288 76.1423 10.288ZM77.8863 6.944C77.8863 6.67733 77.8383 6.44267 77.7423 6.24C77.6463 6.02667 77.5183 5.856 77.3583 5.728C77.1983 5.58933 77.0063 5.488 76.7823 5.424C76.5689 5.36 76.3449 5.328 76.1102 5.328C75.5449 5.33867 75.1023 5.49333 74.7823 5.792C74.4729 6.08 74.2916 6.464 74.2383 6.944H77.8863ZM83.8086 4.704C84.1393 4.29867 84.55 3.984 85.0406 3.76C85.542 3.52533 86.0433 3.40267 86.5446 3.392C87.142 3.38133 87.6966 3.488 88.2086 3.712C88.7206 3.92533 89.1473 4.288 89.4886 4.8C89.766 5.17333 89.9686 5.61067 90.0966 6.112C90.2246 6.61333 90.2886 7.14133 90.2886 7.696C90.2886 8.38933 90.2033 9.01867 90.0326 9.584C89.8726 10.1387 89.5953 10.6187 89.2006 11.024C88.87 11.3867 88.4646 11.664 87.9846 11.856C87.5046 12.0373 87.0246 12.128 86.5446 12.128C86.31 12.128 86.0753 12.112 85.8406 12.08C85.606 12.0587 85.3713 12.0107 85.1366 11.936C84.902 11.8613 84.6673 11.7547 84.4326 11.616C84.2086 11.4773 83.9953 11.2907 83.7926 11.056V15.52H81.5366V3.568H83.6806L83.8086 4.704ZM85.9206 5.408C85.59 5.408 85.2913 5.472 85.0246 5.6C84.7686 5.71733 84.55 5.88267 84.3686 6.096C84.1873 6.30933 84.0433 6.55467 83.9366 6.832C83.8406 7.10933 83.7926 7.408 83.7926 7.728C83.782 8.44267 83.9686 9.01867 84.3526 9.456C84.7473 9.88267 85.2806 10.1067 85.9526 10.128C86.3153 10.128 86.6246 10.0693 86.8806 9.952C87.1366 9.83467 87.3446 9.66933 87.5046 9.456C87.6753 9.24267 87.8033 8.992 87.8886 8.704C87.9846 8.416 88.0326 8.10133 88.0326 7.76C88.0326 7.42933 87.9846 7.12 87.8886 6.832C87.8033 6.544 87.67 6.29333 87.4886 6.08C87.318 5.86667 87.1046 5.70133 86.8486 5.584C86.5926 5.46667 86.2833 5.408 85.9206 5.408Z" fill="#FF5993"/>
</svg>
