<svg width="46" height="47" viewBox="0 0 46 47" fill="none" xmlns="http://www.w3.org/2000/svg">
<rect y="0.5" width="46" height="46" rx="14" fill="white"/>
<path fill-rule="evenodd" clip-rule="evenodd" d="M4.65503 22.8356C4.65503 23.31 4.27029 23.6948 3.79589 23.6948L3.79567 23.6949C3.32103 23.6949 2.93652 23.3101 2.93652 22.8357V19.8469C2.93726 19.0031 3.27283 18.1944 3.86949 17.5977C4.4661 17.0013 5.27493 16.6657 6.11873 16.6647H6.69141V12.7389C6.69263 11.5703 7.15743 10.4496 7.98374 9.62309C8.81005 8.79656 9.93074 8.33151 11.0994 8.32983H28.5712C29.7399 8.33149 30.8605 8.79659 31.6869 9.62309C32.5132 10.4496 32.978 11.5703 32.9792 12.7389V16.6647H33.5519C34.3957 16.6657 35.2045 17.0013 35.8011 17.5977C36.3978 18.1943 36.7334 19.0031 36.7341 19.8469V22.8357C36.7341 23.3101 36.3496 23.6949 35.8749 23.6949C35.4005 23.6949 35.0158 23.3101 35.0158 22.8357V19.8469C35.0156 19.4589 34.8612 19.0866 34.5867 18.8121C34.3123 18.5376 33.9402 18.3833 33.5519 18.383H32.9792V31.4991C32.9756 32.8877 32.315 34.1928 31.1979 35.0181V36.2953C31.2147 37.2055 30.8647 38.0843 30.227 38.7339C29.5892 39.3835 28.7171 39.7496 27.8067 39.7496C26.8962 39.7496 26.0242 39.3835 25.3863 38.7339C24.7484 38.0843 24.3987 37.2055 24.4154 36.2953V35.9069H15.257V36.2953C15.257 37.507 14.6105 38.6267 13.561 39.2327C12.5115 39.8387 11.2187 39.8387 10.1692 39.2327C9.1197 38.6267 8.47319 37.507 8.47319 36.2953V35.0181C7.35612 34.1928 6.69548 32.8877 6.69188 31.4991V21.8591C6.69188 21.8389 6.69258 21.8189 6.69395 21.7991C6.69246 21.7639 6.69169 21.7287 6.69164 21.6934V18.3829H6.11896C5.73063 18.3832 5.3586 18.5376 5.08412 18.812C4.80964 19.0865 4.65527 19.4588 4.65503 19.8469V22.8356ZM8.41017 24.1227V31.4991C8.41091 32.2122 8.6945 32.8958 9.19862 33.4002C9.70293 33.9046 10.3866 34.1879 11.0998 34.1887H28.5668C29.2799 34.1879 29.9635 33.9046 30.4679 33.4002C30.9721 32.8959 31.2556 32.2122 31.2564 31.4991V24.1117C30.9814 24.214 30.6906 24.268 30.3972 24.2708H9.26907C8.97364 24.2705 8.68346 24.2195 8.41017 24.1227ZM13.5383 36.2953H13.5386L13.5383 35.9036H11.0994C10.7942 35.9032 10.4898 35.8708 10.1911 35.8073V36.2953C10.1911 36.8932 10.5102 37.4457 11.028 37.7446C11.5458 38.0436 12.1837 38.0436 12.7015 37.7446C13.2195 37.4457 13.5383 36.8932 13.5383 36.2953ZM29.4748 36.2953H29.475L29.4749 35.8109C29.1762 35.8744 28.8717 35.9065 28.5666 35.907H26.1289V36.2953C26.1169 36.7467 26.288 37.1835 26.603 37.5069C26.918 37.8302 27.3502 38.0127 27.8018 38.0127C28.2532 38.0127 28.6857 37.8302 29.0006 37.5069C29.3156 37.1835 29.4865 36.7467 29.4748 36.2953ZM9.26887 22.5491H30.3915L30.397 22.5524C30.8709 22.5512 31.255 22.1675 31.2562 21.6933V18.6657C31.2549 18.1918 30.8709 17.808 30.397 17.8065H9.26887C8.79471 17.8073 8.41045 18.1915 8.40973 18.6657V21.6899C8.41046 22.1641 8.79471 22.5483 9.26887 22.5491ZM28.5664 10.0479H11.0995H11.0992C10.3861 10.0488 9.70242 10.3327 9.19805 10.8373C8.69367 11.3416 8.41032 12.0255 8.40961 12.7387V16.2465C8.6848 16.1446 8.97534 16.0911 9.26875 16.0882H30.3969C30.6903 16.0911 30.9809 16.1446 31.256 16.2465V12.7387C31.2553 12.0255 30.972 11.3417 30.4676 10.8373C29.9633 10.3327 29.2796 10.0489 28.5664 10.0479ZM23.449 13.9274H16.2165H16.2162C15.7416 13.9274 15.3571 13.5426 15.3571 13.0682C15.3571 12.5936 15.7416 12.2091 16.2162 12.2091H23.449C23.9236 12.2091 24.3081 12.5936 24.3081 13.0682C24.3081 13.5426 23.9236 13.9274 23.449 13.9274ZM14.6944 29.2296C14.6947 28.8285 14.5357 28.4437 14.2522 28.1599C13.9688 27.8761 13.584 27.7164 13.183 27.7164C12.782 27.7162 12.3972 27.8754 12.1134 28.1587C11.8298 28.4423 11.6704 28.8271 11.6701 29.2281C11.6701 29.6292 11.8293 30.0139 12.1129 30.2975C12.3965 30.5811 12.7812 30.7405 13.1823 30.7405C13.5833 30.7407 13.9678 30.5818 14.2514 30.2985C14.535 30.0151 14.6944 29.6306 14.6944 29.2296ZM27.5526 28.1611C27.8359 28.4444 27.9951 28.8287 27.9951 29.2295C27.9953 29.6303 27.8364 30.0148 27.5528 30.2984C27.2695 30.5817 26.8849 30.7407 26.4841 30.7404C26.0834 30.7404 25.6991 30.5813 25.4157 30.2979C25.1324 30.0146 24.9732 29.6303 24.9732 29.2295C24.9732 28.8287 25.1324 28.4444 25.4157 28.1611C25.6991 27.8778 26.0834 27.7186 26.4841 27.7186C26.8849 27.7186 27.2692 27.8778 27.5526 28.1611Z" fill="#D2ECF6"/>
<path fill-rule="evenodd" clip-rule="evenodd" d="M7.59058 22.9362C7.59058 23.4106 7.20583 23.7954 6.73143 23.7954L6.73121 23.7954C6.25657 23.7954 5.87207 23.4107 5.87207 22.9363V19.9475C5.87281 19.1037 6.20838 18.295 6.80504 17.6983C7.40165 17.1019 8.21047 16.7663 9.05427 16.7653H9.62695V12.8395C9.62818 11.6709 10.093 10.5502 10.9193 9.72367C11.7456 8.89715 12.8663 8.4321 14.0349 8.43042H31.5068C32.6754 8.43208 33.7961 8.89718 34.6224 9.72367C35.4487 10.5502 35.9136 11.6709 35.9147 12.8395V16.7653H36.4874C37.3312 16.7662 38.14 17.1019 38.7367 17.6983C39.3333 18.2949 39.6689 19.1037 39.6696 19.9475V22.9363C39.6696 23.4107 39.2851 23.7954 38.8105 23.7954C38.3361 23.7954 37.9513 23.4107 37.9513 22.9363V19.9475C37.9511 19.5594 37.7967 19.1872 37.5223 18.9127C37.2478 18.6382 36.8758 18.4838 36.4874 18.4836H35.9147V31.5996C35.9112 32.9883 35.2505 34.2934 34.1334 35.1187V36.3959C34.1502 37.3061 33.8003 38.1848 33.1626 38.8345C32.5247 39.4841 31.6527 39.8502 30.7422 39.8502C29.8318 39.8502 28.9597 39.4841 28.3218 38.8345C27.684 38.1848 27.3342 37.3061 27.351 36.3959V36.0075H18.1925V36.3959C18.1925 37.6076 17.546 38.7273 16.4965 39.3333C15.447 39.9393 14.1543 39.9393 13.1047 39.3333C12.0552 38.7273 11.4087 37.6076 11.4087 36.3959V35.1187C10.2917 34.2934 9.63103 32.9883 9.62743 31.5996V21.9597C9.62743 21.9395 9.62813 21.9195 9.62949 21.8997C9.62801 21.8645 9.62723 21.8293 9.62719 21.794V18.4835H9.05451C8.66617 18.4838 8.29415 18.6381 8.01967 18.9126C7.74519 19.1871 7.59082 19.5594 7.59058 19.9475V22.9362ZM11.3457 24.2233V31.5996C11.3465 32.3128 11.63 32.9964 12.1342 33.5008C12.6385 34.0052 13.3222 34.2885 14.0353 34.2892H31.5023C32.2155 34.2885 32.8991 34.0052 33.4035 33.5008C33.9076 32.9965 34.1912 32.3128 34.1919 31.5996V24.2122C33.917 24.3146 33.6262 24.3685 33.3328 24.3714H12.2046C11.9092 24.3711 11.619 24.3201 11.3457 24.2233ZM16.4739 36.3959H16.4741L16.4738 36.0042H14.0349C13.7298 36.0037 13.4253 35.9714 13.1267 35.9079V36.3959C13.1267 36.9938 13.4457 37.5463 13.9635 37.8452C14.4813 38.1442 15.1192 38.1442 15.637 37.8452C16.155 37.5463 16.4739 36.9938 16.4739 36.3959ZM32.4103 36.3959H32.4106L32.4104 35.9115C32.1117 35.975 31.8073 36.0071 31.5021 36.0076H29.0644V36.3959C29.0524 36.8473 29.2236 37.2841 29.5386 37.6074C29.8536 37.9308 30.2858 38.1132 30.7374 38.1132C31.1887 38.1132 31.6212 37.9308 31.9362 37.6074C32.2512 37.2841 32.4221 36.8473 32.4103 36.3959ZM12.2044 22.6496H33.327L33.3326 22.653C33.8065 22.6518 34.1905 22.268 34.1917 21.7939V18.7663C34.1905 18.2923 33.8065 17.9086 33.3326 17.9071H12.2044C11.7303 17.9079 11.346 18.2921 11.3453 18.7663V21.7905C11.346 22.2647 11.7303 22.6489 12.2044 22.6496ZM31.502 10.1485H14.035H14.0348C13.3216 10.1494 12.638 10.4333 12.1336 10.9379C11.6292 11.4422 11.3459 12.1261 11.3452 12.8393V16.347C11.6203 16.2452 11.9109 16.1917 12.2043 16.1888H33.3324C33.6259 16.1917 33.9164 16.2452 34.1916 16.347V12.8393C34.1909 12.1261 33.9075 11.4422 33.4031 10.9379C32.8988 10.4333 32.2151 10.1495 31.502 10.1485ZM26.3842 14.028H19.1517H19.1514C18.6768 14.028 18.2923 13.6432 18.2923 13.1688C18.2923 12.6942 18.6768 12.3097 19.1514 12.3097H26.3842C26.8588 12.3097 27.2433 12.6942 27.2433 13.1688C27.2433 13.6432 26.8588 14.028 26.3842 14.028ZM17.6296 29.3301C17.6299 28.9291 17.4709 28.5443 17.1873 28.2605C16.904 27.9767 16.5192 27.817 16.1182 27.817C15.7172 27.8168 15.3324 27.976 15.0486 28.2593C14.765 28.5429 14.6056 28.9277 14.6053 29.3287C14.6053 29.7297 14.7645 30.1145 15.0481 30.3981C15.3317 30.6817 15.7164 30.8411 16.1175 30.8411C16.5185 30.8413 16.903 30.6824 17.1866 30.3991C17.4702 30.1157 17.6296 29.7312 17.6296 29.3301ZM30.4877 28.2617C30.7711 28.545 30.9303 28.9293 30.9303 29.3301C30.9305 29.7309 30.7716 30.1154 30.488 30.399C30.2047 30.6823 29.8201 30.8413 29.4193 30.841C29.0185 30.841 28.6343 30.6819 28.3509 30.3985C28.0676 30.1152 27.9084 29.7309 27.9084 29.3301C27.9084 28.9293 28.0676 28.545 28.3509 28.2617C28.6343 27.9784 29.0185 27.8192 29.4193 27.8192C29.8201 27.8192 30.2044 27.9784 30.4877 28.2617Z" fill="#FF7001"/>
</svg>
